<?xml version="1.0" encoding="UTF-8"?>
<svg xmlns="http://www.w3.org/2000/svg" viewBox="0 0 840 240" width="840" height="240" role="img" aria-label="Boarding pass">
  <rect width="840" height="240" rx="28" fill="#070b14"/>
  <rect x="1" y="1" width="838" height="238" rx="27" fill="none" stroke="#1c2436"/>
  <text x="36" y="48" font-family="SF Pro Display, Helvetica Neue, Arial" font-size="22" font-weight="700" fill="#f5f8ff">Wallet pass</text>
  <text x="36" y="74" font-family="SF Pro Text, Helvetica Neue, Arial" font-size="13" fill="#8ea0b8">PKPass. Boarding barcode.</text>
  <rect x="560" y="88" width="240" height="120" rx="16" fill="#101826" stroke="#0a84ff"/>
  <text x="580" y="118" fill="#f5f8ff" font-size="14" font-family="SF Pro Display, Arial">ISB  to  LHR</text>
  <text x="580" y="142" fill="#8ea0b8" font-size="12" font-family="SF Pro Text, Arial">Seat 14A</text>
  <g fill="#f5f8ff">
    <rect x="580" y="160" width="4" height="20"/><rect x="588" y="160" width="4" height="28"/><rect x="596" y="160" width="4" height="36"/><rect x="604" y="160" width="4" height="20"/><rect x="612" y="160" width="4" height="28"/><rect x="620" y="160" width="4" height="36"/><rect x="628" y="160" width="4" height="20"/><rect x="636" y="160" width="4" height="28"/><rect x="644" y="160" width="4" height="36"/><rect x="652" y="160" width="4" height="20"/><rect x="660" y="160" width="4" height="28"/><rect x="668" y="160" width="4" height="36"/><rect x="676" y="160" width="4" height="20"/><rect x="684" y="160" width="4" height="28"/><rect x="692" y="160" width="4" height="36"/><rect x="700" y="160" width="4" height="20"/><rect x="708" y="160" width="4" height="28"/><rect x="716" y="160" width="4" height="36"/><rect x="724" y="160" width="4" height="20"/><rect x="732" y="160" width="4" height="28"/><rect x="740" y="160" width="4" height="36"/><rect x="748" y="160" width="4" height="20"/>
  </g>
</svg>
